<mxfile host="app.diagrams.net" agent="Mozilla/5.0 (Windows NT 10.0; Win64; x64) AppleWebKit/537.36 (KHTML, like Gecko) Chrome/130.0.0.0 Safari/537.36 OPR/115.0.0.0" version="26.0.10">
  <diagram name="Seite-1" id="cVA9_5e8J0DKBq7RH6YI">
    <mxGraphModel dx="1054" dy="614" grid="0" gridSize="10" guides="1" tooltips="1" connect="1" arrows="1" fold="1" page="1" pageScale="1" pageWidth="827" pageHeight="1169" math="0" shadow="0">
      <root>
        <mxCell id="0" />
        <mxCell id="1" parent="0" />
        <mxCell id="X6JJ-rhkMjO4_sblP5r2-1" value="" style="rounded=0;whiteSpace=wrap;html=1;" parent="1" vertex="1">
          <mxGeometry x="100" y="310" width="500" height="470" as="geometry" />
        </mxCell>
        <mxCell id="7VXMVgR8vHPEnq-q2Bca-17" value="" style="rounded=0;whiteSpace=wrap;html=1;fillColor=#dae8fc;strokeColor=#6c8ebf;" parent="1" vertex="1">
          <mxGeometry x="113" y="320" width="40" height="450" as="geometry" />
        </mxCell>
        <mxCell id="7VXMVgR8vHPEnq-q2Bca-18" value="" style="rounded=0;whiteSpace=wrap;html=1;fillColor=#f8cecc;strokeColor=#b85450;" parent="1" vertex="1">
          <mxGeometry x="550" y="320" width="40" height="450" as="geometry" />
        </mxCell>
        <mxCell id="glS_dSBWl-7jIEEjjGpQ-8" value="" style="endArrow=classic;html=1;rounded=0;exitX=0.5;exitY=0;exitDx=0;exitDy=0;entryX=0.5;entryY=1;entryDx=0;entryDy=0;" parent="1" source="TEybZUtk0uL9gqVPZ0SR-23" target="glS_dSBWl-7jIEEjjGpQ-19" edge="1">
          <mxGeometry width="50" height="50" relative="1" as="geometry">
            <mxPoint x="351.5" y="557" as="sourcePoint" />
            <mxPoint x="523" y="560" as="targetPoint" />
          </mxGeometry>
        </mxCell>
        <mxCell id="glS_dSBWl-7jIEEjjGpQ-20" value="enable_crc" style="edgeLabel;html=1;align=center;verticalAlign=middle;resizable=0;points=[];" parent="glS_dSBWl-7jIEEjjGpQ-8" vertex="1" connectable="0">
          <mxGeometry x="0.0072" y="-4" relative="1" as="geometry">
            <mxPoint x="-4" y="5" as="offset" />
          </mxGeometry>
        </mxCell>
        <mxCell id="glS_dSBWl-7jIEEjjGpQ-10" value="" style="endArrow=classic;html=1;rounded=0;" parent="1" edge="1">
          <mxGeometry width="50" height="50" relative="1" as="geometry">
            <mxPoint x="153" y="643.4" as="sourcePoint" />
            <mxPoint x="273" y="643.4" as="targetPoint" />
          </mxGeometry>
        </mxCell>
        <mxCell id="glS_dSBWl-7jIEEjjGpQ-11" value="enable_i" style="edgeLabel;html=1;align=center;verticalAlign=middle;resizable=0;points=[];" parent="glS_dSBWl-7jIEEjjGpQ-10" vertex="1" connectable="0">
          <mxGeometry x="0.0374" relative="1" as="geometry">
            <mxPoint x="-2" as="offset" />
          </mxGeometry>
        </mxCell>
        <mxCell id="glS_dSBWl-7jIEEjjGpQ-19" value="" style="rounded=0;whiteSpace=wrap;html=1;" parent="1" vertex="1">
          <mxGeometry x="272" y="340" width="157" height="140" as="geometry" />
        </mxCell>
        <mxCell id="glS_dSBWl-7jIEEjjGpQ-29" value="" style="endArrow=classic;html=1;rounded=0;exitX=1;exitY=0.25;exitDx=0;exitDy=0;" parent="1" edge="1">
          <mxGeometry width="50" height="50" relative="1" as="geometry">
            <mxPoint x="153" y="400" as="sourcePoint" />
            <mxPoint x="272" y="400" as="targetPoint" />
          </mxGeometry>
        </mxCell>
        <mxCell id="glS_dSBWl-7jIEEjjGpQ-30" value="rxd_sync_i" style="edgeLabel;html=1;align=center;verticalAlign=middle;resizable=0;points=[];" parent="glS_dSBWl-7jIEEjjGpQ-29" vertex="1" connectable="0">
          <mxGeometry x="0.0374" relative="1" as="geometry">
            <mxPoint x="-2" as="offset" />
          </mxGeometry>
        </mxCell>
        <mxCell id="glS_dSBWl-7jIEEjjGpQ-35" value="" style="endArrow=classic;html=1;rounded=0;exitX=1;exitY=0.25;exitDx=0;exitDy=0;entryX=0.001;entryY=0.576;entryDx=0;entryDy=0;entryPerimeter=0;" parent="1" edge="1" target="glS_dSBWl-7jIEEjjGpQ-19">
          <mxGeometry width="50" height="50" relative="1" as="geometry">
            <mxPoint x="153" y="420" as="sourcePoint" />
            <mxPoint x="271" y="420" as="targetPoint" />
          </mxGeometry>
        </mxCell>
        <mxCell id="glS_dSBWl-7jIEEjjGpQ-36" value="crc_i" style="edgeLabel;html=1;align=center;verticalAlign=middle;resizable=0;points=[];" parent="glS_dSBWl-7jIEEjjGpQ-35" vertex="1" connectable="0">
          <mxGeometry x="0.0374" relative="1" as="geometry">
            <mxPoint x="-2" as="offset" />
          </mxGeometry>
        </mxCell>
        <mxCell id="glS_dSBWl-7jIEEjjGpQ-37" value="" style="endArrow=classic;html=1;rounded=0;exitX=1;exitY=0.25;exitDx=0;exitDy=0;entryX=0;entryY=0.715;entryDx=0;entryDy=0;entryPerimeter=0;" parent="1" edge="1" target="glS_dSBWl-7jIEEjjGpQ-19">
          <mxGeometry width="50" height="50" relative="1" as="geometry">
            <mxPoint x="153" y="440" as="sourcePoint" />
            <mxPoint x="271" y="440" as="targetPoint" />
          </mxGeometry>
        </mxCell>
        <mxCell id="glS_dSBWl-7jIEEjjGpQ-38" value="crc_valid_i" style="edgeLabel;html=1;align=center;verticalAlign=middle;resizable=0;points=[];" parent="glS_dSBWl-7jIEEjjGpQ-37" vertex="1" connectable="0">
          <mxGeometry x="0.0374" relative="1" as="geometry">
            <mxPoint x="-2" as="offset" />
          </mxGeometry>
        </mxCell>
        <mxCell id="glS_dSBWl-7jIEEjjGpQ-39" value="" style="endArrow=classic;html=1;rounded=0;exitX=1;exitY=0.25;exitDx=0;exitDy=0;entryX=0;entryY=0.286;entryDx=0;entryDy=0;entryPerimeter=0;" parent="1" edge="1" target="glS_dSBWl-7jIEEjjGpQ-19">
          <mxGeometry width="50" height="50" relative="1" as="geometry">
            <mxPoint x="153" y="380" as="sourcePoint" />
            <mxPoint x="273" y="380" as="targetPoint" />
          </mxGeometry>
        </mxCell>
        <mxCell id="glS_dSBWl-7jIEEjjGpQ-40" value="stuff_bit_i" style="edgeLabel;html=1;align=center;verticalAlign=middle;resizable=0;points=[];" parent="glS_dSBWl-7jIEEjjGpQ-39" vertex="1" connectable="0">
          <mxGeometry x="0.0374" relative="1" as="geometry">
            <mxPoint x="-2" as="offset" />
          </mxGeometry>
        </mxCell>
        <mxCell id="glS_dSBWl-7jIEEjjGpQ-41" value="" style="endArrow=classic;html=1;rounded=0;exitX=1;exitY=0.25;exitDx=0;exitDy=0;" parent="1" edge="1">
          <mxGeometry width="50" height="50" relative="1" as="geometry">
            <mxPoint x="153" y="360" as="sourcePoint" />
            <mxPoint x="272" y="360" as="targetPoint" />
          </mxGeometry>
        </mxCell>
        <mxCell id="glS_dSBWl-7jIEEjjGpQ-42" value="sample_i" style="edgeLabel;html=1;align=center;verticalAlign=middle;resizable=0;points=[];" parent="glS_dSBWl-7jIEEjjGpQ-41" vertex="1" connectable="0">
          <mxGeometry x="0.0374" relative="1" as="geometry">
            <mxPoint x="-2" as="offset" />
          </mxGeometry>
        </mxCell>
        <mxCell id="glS_dSBWl-7jIEEjjGpQ-43" value="" style="endArrow=classic;html=1;rounded=0;exitX=1;exitY=0.25;exitDx=0;exitDy=0;" parent="1" edge="1">
          <mxGeometry width="50" height="50" relative="1" as="geometry">
            <mxPoint x="153" y="460" as="sourcePoint" />
            <mxPoint x="272" y="460" as="targetPoint" />
          </mxGeometry>
        </mxCell>
        <mxCell id="glS_dSBWl-7jIEEjjGpQ-44" value="reset_i" style="edgeLabel;html=1;align=center;verticalAlign=middle;resizable=0;points=[];" parent="glS_dSBWl-7jIEEjjGpQ-43" vertex="1" connectable="0">
          <mxGeometry x="0.0374" relative="1" as="geometry">
            <mxPoint x="-3" as="offset" />
          </mxGeometry>
        </mxCell>
        <mxCell id="glS_dSBWl-7jIEEjjGpQ-45" value="CRC calculation" style="text;html=1;align=center;verticalAlign=middle;whiteSpace=wrap;rounded=0;fontSize=15;" parent="1" vertex="1">
          <mxGeometry x="320.5" y="395" width="60" height="30" as="geometry" />
        </mxCell>
        <mxCell id="GZ54S_zyWyj5w7grDyd4-6" value="" style="endArrow=classic;html=1;rounded=0;exitX=1;exitY=0.25;exitDx=0;exitDy=0;" parent="1" edge="1">
          <mxGeometry width="50" height="50" relative="1" as="geometry">
            <mxPoint x="429" y="409.71" as="sourcePoint" />
            <mxPoint x="549" y="409.71" as="targetPoint" />
          </mxGeometry>
        </mxCell>
        <mxCell id="GZ54S_zyWyj5w7grDyd4-7" value="crc_error_o" style="edgeLabel;html=1;align=center;verticalAlign=middle;resizable=0;points=[];" parent="GZ54S_zyWyj5w7grDyd4-6" vertex="1" connectable="0">
          <mxGeometry x="0.0374" relative="1" as="geometry">
            <mxPoint x="-3" as="offset" />
          </mxGeometry>
        </mxCell>
        <mxCell id="TEybZUtk0uL9gqVPZ0SR-23" value="" style="rounded=0;whiteSpace=wrap;html=1;" parent="1" vertex="1">
          <mxGeometry x="272" y="540" width="157" height="207" as="geometry" />
        </mxCell>
        <mxCell id="TEybZUtk0uL9gqVPZ0SR-1" value="" style="ellipse;whiteSpace=wrap;html=1;fillColor=#ffe6cc;strokeColor=#d79b00;container=0;" parent="1" vertex="1">
          <mxGeometry x="330.5" y="583.5" width="40" height="40" as="geometry" />
        </mxCell>
        <mxCell id="TEybZUtk0uL9gqVPZ0SR-2" value="&lt;font&gt;idle&lt;/font&gt;" style="text;html=1;align=center;verticalAlign=middle;whiteSpace=wrap;rounded=0;labelPosition=center;verticalLabelPosition=middle;fontSize=9;fontStyle=0" parent="1" vertex="1">
          <mxGeometry x="336.25" y="591.5" width="28.5" height="23.99" as="geometry" />
        </mxCell>
        <mxCell id="TEybZUtk0uL9gqVPZ0SR-9" value="" style="endArrow=classic;html=1;rounded=0;entryX=0.5;entryY=0;entryDx=0;entryDy=0;" parent="1" target="TEybZUtk0uL9gqVPZ0SR-1" edge="1">
          <mxGeometry width="50" height="50" relative="1" as="geometry">
            <mxPoint x="350.5" y="583.5" as="sourcePoint" />
            <mxPoint x="310.5" y="573.5" as="targetPoint" />
            <Array as="points">
              <mxPoint x="370.5" y="573.5" />
              <mxPoint x="370.5" y="553.5" />
              <mxPoint x="330.5" y="553.5" />
              <mxPoint x="330.5" y="573.5" />
            </Array>
          </mxGeometry>
        </mxCell>
        <mxCell id="TEybZUtk0uL9gqVPZ0SR-10" value="enable_i=0" style="edgeLabel;html=1;align=center;verticalAlign=middle;resizable=0;points=[];fontSize=7;" parent="TEybZUtk0uL9gqVPZ0SR-9" vertex="1" connectable="0">
          <mxGeometry x="0.0374" relative="1" as="geometry">
            <mxPoint x="1" as="offset" />
          </mxGeometry>
        </mxCell>
        <mxCell id="TEybZUtk0uL9gqVPZ0SR-11" value="" style="endArrow=classic;html=1;rounded=0;exitX=1;exitY=0.5;exitDx=0;exitDy=0;entryX=1;entryY=0.5;entryDx=0;entryDy=0;" parent="1" source="TEybZUtk0uL9gqVPZ0SR-1" target="TEybZUtk0uL9gqVPZ0SR-15" edge="1">
          <mxGeometry width="50" height="50" relative="1" as="geometry">
            <mxPoint x="340.5" y="643.5" as="sourcePoint" />
            <mxPoint x="390.5" y="713.5" as="targetPoint" />
            <Array as="points">
              <mxPoint x="390.5" y="603.5" />
              <mxPoint x="390.5" y="683.5" />
            </Array>
          </mxGeometry>
        </mxCell>
        <mxCell id="TEybZUtk0uL9gqVPZ0SR-12" value="enable_i=1" style="edgeLabel;html=1;align=center;verticalAlign=middle;resizable=0;points=[];fontSize=7;" parent="TEybZUtk0uL9gqVPZ0SR-11" vertex="1" connectable="0">
          <mxGeometry x="0.0374" relative="1" as="geometry">
            <mxPoint x="2" y="-2" as="offset" />
          </mxGeometry>
        </mxCell>
        <mxCell id="TEybZUtk0uL9gqVPZ0SR-15" value="" style="ellipse;whiteSpace=wrap;html=1;fillColor=#ffe6cc;strokeColor=#d79b00;container=0;" parent="1" vertex="1">
          <mxGeometry x="330.5" y="663.5" width="40" height="40" as="geometry" />
        </mxCell>
        <mxCell id="TEybZUtk0uL9gqVPZ0SR-16" value="&lt;font&gt;calculate&lt;/font&gt;&lt;div&gt;&lt;font&gt;_crc&lt;/font&gt;&lt;/div&gt;" style="text;html=1;align=center;verticalAlign=middle;whiteSpace=wrap;rounded=0;labelPosition=center;verticalLabelPosition=middle;fontSize=9;" parent="1" vertex="1">
          <mxGeometry x="336.25" y="672.5" width="28.5" height="23.99" as="geometry" />
        </mxCell>
        <mxCell id="TEybZUtk0uL9gqVPZ0SR-19" value="" style="endArrow=classic;html=1;rounded=0;exitX=0;exitY=0.5;exitDx=0;exitDy=0;entryX=0;entryY=0.5;entryDx=0;entryDy=0;" parent="1" source="TEybZUtk0uL9gqVPZ0SR-15" target="TEybZUtk0uL9gqVPZ0SR-1" edge="1">
          <mxGeometry width="50" height="50" relative="1" as="geometry">
            <mxPoint x="200.5" y="633.5" as="sourcePoint" />
            <mxPoint x="310.5" y="603.5" as="targetPoint" />
            <Array as="points">
              <mxPoint x="310.5" y="683.5" />
              <mxPoint x="310.5" y="603.5" />
            </Array>
          </mxGeometry>
        </mxCell>
        <mxCell id="TEybZUtk0uL9gqVPZ0SR-20" value="enable_i=0" style="edgeLabel;html=1;align=center;verticalAlign=middle;resizable=0;points=[];fontSize=7;" parent="TEybZUtk0uL9gqVPZ0SR-19" vertex="1" connectable="0">
          <mxGeometry x="0.0374" relative="1" as="geometry">
            <mxPoint x="-2" y="2" as="offset" />
          </mxGeometry>
        </mxCell>
        <mxCell id="TEybZUtk0uL9gqVPZ0SR-21" value="" style="endArrow=classic;html=1;rounded=0;entryX=0.5;entryY=1;entryDx=0;entryDy=0;" parent="1" target="TEybZUtk0uL9gqVPZ0SR-15" edge="1">
          <mxGeometry width="50" height="50" relative="1" as="geometry">
            <mxPoint x="350.5" y="703.5" as="sourcePoint" />
            <mxPoint x="350.5" y="753.5" as="targetPoint" />
            <Array as="points">
              <mxPoint x="370.5" y="713.5" />
              <mxPoint x="370.5" y="733.5" />
              <mxPoint x="330.5" y="733.5" />
              <mxPoint x="330.5" y="713.5" />
            </Array>
          </mxGeometry>
        </mxCell>
        <mxCell id="TEybZUtk0uL9gqVPZ0SR-22" value="enable_i=1" style="edgeLabel;html=1;align=center;verticalAlign=middle;resizable=0;points=[];fontSize=7;" parent="TEybZUtk0uL9gqVPZ0SR-21" vertex="1" connectable="0">
          <mxGeometry x="0.0374" relative="1" as="geometry">
            <mxPoint x="1" as="offset" />
          </mxGeometry>
        </mxCell>
        <mxCell id="7VXMVgR8vHPEnq-q2Bca-43" value="CRC&lt;div&gt;FSM&lt;/div&gt;" style="text;strokeColor=none;align=center;fillColor=none;html=1;verticalAlign=middle;whiteSpace=wrap;rounded=0;container=0;fontSize=13;" parent="1" vertex="1">
          <mxGeometry x="272.0028038461539" y="545.0048275862068" width="36.23076923076924" height="24.82758620689655" as="geometry" />
        </mxCell>
      </root>
    </mxGraphModel>
  </diagram>
</mxfile>
